<svg xmlns="http://www.w3.org/2000/svg" viewBox="0 0 139.06 160.53"><defs><style>.cls-1{fill:#187396;}</style></defs><title>nodumi</title><g id="svg-icon"><path class="cls-1" d="M70.65,67.21c2.64-9.12,8.43-21,13.17-23.75,13.55-7.72,46.9,3.78,55.2-3.36-1.09,16-23.88,35-23.88,35,4.44-3.31,15.4-18.48,12.64-28-10.17-2.58-32.55-1.44-40.29,3.21-8.63,5.2-15.63,23.82-15.91,27-2.74-2-14.81-20.08-15.59-25.28a10,10,0,0,1,0-5.42c3,3.46,6.25,7.66,7,10.93C65.31,67,68.89,73.53,70.65,67.21Z"/><path class="cls-1" d="M81.39,74.71c9.22-2.28,22.45-3.23,27.16-.47,13.46,7.87,20.17,42.51,30.51,46.12-14.44,7.09-42.28-3.16-42.28-3.16,5.09,2.18,23.71,4.09,30.59-3.07-2.85-10.1-15-28.91-22.93-33.28C95.62,76,76,79.22,73.07,80.58c.39-3.37,10-22.86,14.09-26.13a10,10,0,0,1,4.72-2.69c-1.51,4.31-3.51,9.24-5.95,11.56C78.87,70,75,76.34,81.39,74.71Z"/><path class="cls-1" d="M80.27,87.76c6.58,6.84,14,17.83,14,23.29-.09,15.59-26.73,38.72-24.69,49.48-13.36-9-18.4-38.2-18.4-38.2.65,5.5,8.31,22.58,18,25,7.32-7.51,17.52-27.46,17.36-36.49C86.29,100.71,73.67,85.34,71,83.49c3.12-1.36,24.79-2.78,29.68-.86a9.89,9.89,0,0,1,4.69,2.74c-4.48.84-9.76,1.58-13,.62C83.09,83.22,75.68,83.07,80.27,87.76Z"/><path class="cls-1" d="M68.41,93.31c-2.64,9.12-8.43,21.06-13.17,23.76-13.55,7.72-46.9-3.79-55.2,3.36,1.09-16.05,23.88-35,23.88-35-4.44,3.31-15.4,18.48-12.63,28,10.16,2.58,32.54,1.44,40.28-3.22,8.63-5.19,15.63-23.81,15.91-27,2.74,2,14.81,20.09,15.59,25.28a10,10,0,0,1,0,5.43c-3-3.46-6.25-7.66-7-10.93C73.75,93.48,70.17,87,68.41,93.31Z"/><path class="cls-1" d="M57.67,85.82c-9.22,2.27-22.45,3.23-27.16.47C17.05,78.42,10.34,43.78,0,40.17c14.44-7.09,42.28,3.16,42.28,3.16-5.09-2.19-23.71-4.1-30.59,3.07,2.85,10.1,15,28.91,22.93,33.28,8.82,4.88,28.44,1.63,31.37.26-.38,3.38-10,22.86-14.09,26.14a9.93,9.93,0,0,1-4.72,2.68c1.51-4.3,3.51-9.24,6-11.55C60.19,90.53,64,84.19,57.67,85.82Z"/><path class="cls-1" d="M58.79,72.77c-6.58-6.85-14-17.83-14-23.29C44.89,33.89,71.53,10.76,69.49,0c13.36,9,18.4,38.19,18.4,38.19-.65-5.49-8.31-22.57-18-24.95-7.32,7.52-17.52,27.47-17.36,36.5C52.77,59.81,65.39,75.18,68,77c-3.12,1.35-24.79,2.78-29.68.86a10,10,0,0,1-4.69-2.74c4.48-.85,9.76-1.58,13-.62C56,77.31,63.38,77.45,58.79,72.77Z"/></g></svg>
